<mxfile host="www.draw.io" modified="2023-05-08T04:04:21.368Z" agent="Mozilla/5.0 (Windows NT 10.0; Win64; x64) AppleWebKit/537.36 (KHTML, like Gecko) Chrome/113.0.0.0 Safari/537.36" etag="0X7yDTQXQG99qGWgz9Ep" version="21.2.9" type="device">
  <diagram id="C5RBs43oDa-KdzZeNtuy" name="Page-1">
    <mxGraphModel dx="944" dy="1500" grid="1" gridSize="10" guides="1" tooltips="1" connect="1" arrows="1" fold="1" page="1" pageScale="1" pageWidth="827" pageHeight="1169" math="0" shadow="0">
      <root>
        <mxCell id="WIyWlLk6GJQsqaUBKTNV-0" />
        <mxCell id="WIyWlLk6GJQsqaUBKTNV-1" parent="WIyWlLk6GJQsqaUBKTNV-0" />
        <mxCell id="56Q6Ti4guwLSB6XdxsnC-1" value="" style="edgeStyle=orthogonalEdgeStyle;rounded=0;orthogonalLoop=1;jettySize=auto;html=1;entryX=0.5;entryY=0;entryDx=0;entryDy=0;exitX=0.5;exitY=1;exitDx=0;exitDy=0;fontSize=40;" parent="WIyWlLk6GJQsqaUBKTNV-1" source="56Q6Ti4guwLSB6XdxsnC-0" target="-ehSZKwI9B30rcVdJ-T3-0" edge="1">
          <mxGeometry relative="1" as="geometry">
            <mxPoint x="315" y="80" as="sourcePoint" />
            <mxPoint x="320" y="120" as="targetPoint" />
          </mxGeometry>
        </mxCell>
        <mxCell id="56Q6Ti4guwLSB6XdxsnC-0" value="&lt;b style=&quot;font-size: 40px;&quot;&gt;&lt;font face=&quot;Times New Roman&quot; style=&quot;font-size: 40px;&quot;&gt;Start&lt;/font&gt;&lt;/b&gt;" style="ellipse;whiteSpace=wrap;html=1;fontSize=40;" parent="WIyWlLk6GJQsqaUBKTNV-1" vertex="1">
          <mxGeometry x="286.5" y="40" width="165" height="60" as="geometry" />
        </mxCell>
        <mxCell id="Inl-dbZB7pmmqooHgQ4q-2" value="" style="edgeStyle=orthogonalEdgeStyle;rounded=0;orthogonalLoop=1;jettySize=auto;html=1;" edge="1" parent="WIyWlLk6GJQsqaUBKTNV-1" source="56Q6Ti4guwLSB6XdxsnC-5" target="-ehSZKwI9B30rcVdJ-T3-4">
          <mxGeometry relative="1" as="geometry" />
        </mxCell>
        <mxCell id="56Q6Ti4guwLSB6XdxsnC-5" value="&lt;font face=&quot;Times New Roman&quot; style=&quot;font-size: 40px;&quot;&gt;&lt;span style=&quot;font-size: 40px;&quot;&gt;&lt;b style=&quot;font-size: 40px;&quot;&gt;Multiply the Noisy Image Matrix (Frequency Domain) with the Transfer Function of Butterworth LPF&lt;br style=&quot;font-size: 40px;&quot;&gt;(H(w))&lt;sup style=&quot;font-size: 40px;&quot;&gt;2&lt;/sup&gt; = 1/(1+(w/w&lt;sub style=&quot;font-size: 40px;&quot;&gt;c&lt;/sub&gt;)&lt;sup style=&quot;font-size: 40px;&quot;&gt;2N&lt;/sup&gt;)&lt;br style=&quot;font-size: 40px;&quot;&gt;&lt;/b&gt;&lt;/span&gt;&lt;/font&gt;" style="rounded=0;whiteSpace=wrap;html=1;fontSize=40;glass=0;strokeWidth=1;shadow=0;" parent="WIyWlLk6GJQsqaUBKTNV-1" vertex="1">
          <mxGeometry x="28.25" y="1030" width="683.5" height="350.22" as="geometry" />
        </mxCell>
        <mxCell id="56Q6Ti4guwLSB6XdxsnC-16" value="" style="edgeStyle=orthogonalEdgeStyle;rounded=0;orthogonalLoop=1;jettySize=auto;html=1;entryX=0.5;entryY=0;entryDx=0;entryDy=0;exitX=0.5;exitY=1;exitDx=0;exitDy=0;fontSize=40;" parent="WIyWlLk6GJQsqaUBKTNV-1" source="56Q6Ti4guwLSB6XdxsnC-21" target="56Q6Ti4guwLSB6XdxsnC-14" edge="1">
          <mxGeometry relative="1" as="geometry">
            <mxPoint x="319" y="810" as="sourcePoint" />
          </mxGeometry>
        </mxCell>
        <mxCell id="Inl-dbZB7pmmqooHgQ4q-1" value="" style="edgeStyle=orthogonalEdgeStyle;rounded=0;orthogonalLoop=1;jettySize=auto;html=1;" edge="1" parent="WIyWlLk6GJQsqaUBKTNV-1" source="56Q6Ti4guwLSB6XdxsnC-14" target="56Q6Ti4guwLSB6XdxsnC-5">
          <mxGeometry relative="1" as="geometry" />
        </mxCell>
        <mxCell id="56Q6Ti4guwLSB6XdxsnC-14" value="&lt;font face=&quot;Times New Roman&quot; style=&quot;font-size: 40px;&quot;&gt;&lt;span style=&quot;font-size: 40px;&quot;&gt;&lt;b style=&quot;font-size: 40px;&quot;&gt;Take the 2-D FFT of the Noisy Image&lt;/b&gt;&lt;/span&gt;&lt;/font&gt;" style="rounded=0;whiteSpace=wrap;html=1;fontSize=40;glass=0;strokeWidth=1;shadow=0;" parent="WIyWlLk6GJQsqaUBKTNV-1" vertex="1">
          <mxGeometry x="202.25" y="780" width="333.5" height="129.86" as="geometry" />
        </mxCell>
        <mxCell id="56Q6Ti4guwLSB6XdxsnC-17" value="&lt;b style=&quot;font-size: 40px;&quot;&gt;&lt;font face=&quot;Times New Roman&quot; style=&quot;font-size: 40px;&quot;&gt;End&lt;/font&gt;&lt;/b&gt;" style="ellipse;whiteSpace=wrap;html=1;fontSize=40;" parent="WIyWlLk6GJQsqaUBKTNV-1" vertex="1">
          <mxGeometry x="247.5" y="2060" width="245" height="70" as="geometry" />
        </mxCell>
        <mxCell id="Inl-dbZB7pmmqooHgQ4q-4" value="" style="edgeStyle=orthogonalEdgeStyle;rounded=0;orthogonalLoop=1;jettySize=auto;html=1;" edge="1" parent="WIyWlLk6GJQsqaUBKTNV-1" source="56Q6Ti4guwLSB6XdxsnC-18" target="56Q6Ti4guwLSB6XdxsnC-17">
          <mxGeometry relative="1" as="geometry" />
        </mxCell>
        <mxCell id="56Q6Ti4guwLSB6XdxsnC-18" value="&lt;b style=&quot;font-size: 40px;&quot;&gt;&lt;font style=&quot;font-size: 40px;&quot; face=&quot;Times New Roman&quot;&gt;Display the Noisy and Filtered Images&lt;/font&gt;&lt;/b&gt;" style="shape=parallelogram;perimeter=parallelogramPerimeter;whiteSpace=wrap;html=1;fixedSize=1;fontSize=40;" parent="WIyWlLk6GJQsqaUBKTNV-1" vertex="1">
          <mxGeometry x="174" y="1770" width="390" height="200" as="geometry" />
        </mxCell>
        <mxCell id="56Q6Ti4guwLSB6XdxsnC-21" value="&lt;b style=&quot;border-color: var(--border-color); font-size: 40px;&quot;&gt;&lt;font style=&quot;border-color: var(--border-color); font-size: 40px;&quot; face=&quot;Times New Roman&quot;&gt;Select Filter Order&amp;nbsp; &amp;nbsp; (N=2)&lt;/font&gt;&lt;/b&gt;" style="shape=parallelogram;perimeter=parallelogramPerimeter;whiteSpace=wrap;html=1;fixedSize=1;fontSize=40;" parent="WIyWlLk6GJQsqaUBKTNV-1" vertex="1">
          <mxGeometry x="178.5" y="550" width="381" height="114.3" as="geometry" />
        </mxCell>
        <mxCell id="-ehSZKwI9B30rcVdJ-T3-2" style="edgeStyle=orthogonalEdgeStyle;rounded=0;orthogonalLoop=1;jettySize=auto;html=1;exitX=0.5;exitY=1;exitDx=0;exitDy=0;fontSize=40;" parent="WIyWlLk6GJQsqaUBKTNV-1" source="-ehSZKwI9B30rcVdJ-T3-0" target="-ehSZKwI9B30rcVdJ-T3-1" edge="1">
          <mxGeometry relative="1" as="geometry" />
        </mxCell>
        <mxCell id="-ehSZKwI9B30rcVdJ-T3-0" value="&lt;b style=&quot;border-color: var(--border-color); font-size: 40px;&quot;&gt;&lt;font style=&quot;border-color: var(--border-color); font-size: 40px;&quot; face=&quot;Times New Roman&quot;&gt;Input an Image&lt;/font&gt;&lt;/b&gt;" style="shape=parallelogram;perimeter=parallelogramPerimeter;whiteSpace=wrap;html=1;fixedSize=1;fontSize=40;" parent="WIyWlLk6GJQsqaUBKTNV-1" vertex="1">
          <mxGeometry x="240" y="120" width="260" height="90" as="geometry" />
        </mxCell>
        <mxCell id="Inl-dbZB7pmmqooHgQ4q-0" value="" style="edgeStyle=orthogonalEdgeStyle;rounded=0;orthogonalLoop=1;jettySize=auto;html=1;" edge="1" parent="WIyWlLk6GJQsqaUBKTNV-1" source="-ehSZKwI9B30rcVdJ-T3-1" target="56Q6Ti4guwLSB6XdxsnC-21">
          <mxGeometry relative="1" as="geometry" />
        </mxCell>
        <mxCell id="-ehSZKwI9B30rcVdJ-T3-1" value="&lt;font face=&quot;Times New Roman&quot; style=&quot;font-size: 40px;&quot;&gt;&lt;span style=&quot;font-size: 40px;&quot;&gt;&lt;b style=&quot;font-size: 40px;&quot;&gt;Add Noise to the Image (Say Gaussian Noise)&lt;/b&gt;&lt;/span&gt;&lt;/font&gt;" style="rounded=0;whiteSpace=wrap;html=1;fontSize=40;glass=0;strokeWidth=1;shadow=0;" parent="WIyWlLk6GJQsqaUBKTNV-1" vertex="1">
          <mxGeometry x="198" y="280" width="342" height="180" as="geometry" />
        </mxCell>
        <mxCell id="Inl-dbZB7pmmqooHgQ4q-3" value="" style="edgeStyle=orthogonalEdgeStyle;rounded=0;orthogonalLoop=1;jettySize=auto;html=1;" edge="1" parent="WIyWlLk6GJQsqaUBKTNV-1" source="-ehSZKwI9B30rcVdJ-T3-4" target="56Q6Ti4guwLSB6XdxsnC-18">
          <mxGeometry relative="1" as="geometry" />
        </mxCell>
        <mxCell id="-ehSZKwI9B30rcVdJ-T3-4" value="&lt;font face=&quot;Times New Roman&quot; style=&quot;font-size: 40px;&quot;&gt;&lt;span style=&quot;font-size: 40px;&quot;&gt;&lt;b style=&quot;font-size: 40px;&quot;&gt;Take the 2-D IFFT of the Filtered Image&lt;/b&gt;&lt;/span&gt;&lt;/font&gt;" style="rounded=0;whiteSpace=wrap;html=1;fontSize=40;glass=0;strokeWidth=1;shadow=0;" parent="WIyWlLk6GJQsqaUBKTNV-1" vertex="1">
          <mxGeometry x="175.94" y="1500" width="388.12" height="168.25" as="geometry" />
        </mxCell>
      </root>
    </mxGraphModel>
  </diagram>
</mxfile>
